G75*
G70*
%OFA0B0*%
%FSLAX24Y24*%
%IPPOS*%
%LPD*%
%AMOC8*
5,1,8,0,0,1.08239X$1,22.5*
%
%ADD10R,0.1890X0.1102*%
%ADD11R,0.0098X0.0610*%
%ADD12R,0.0300X0.0300*%
%ADD13R,0.1063X0.0709*%
%ADD14R,0.0300X0.0300*%
%ADD15R,0.0460X0.0630*%
%ADD16R,0.0591X0.0551*%
%ADD17R,0.0118X0.0591*%
%ADD18R,0.0236X0.0866*%
D10*
X006147Y010375D03*
X014147Y010375D03*
X022147Y010375D03*
X030147Y010375D03*
X038147Y010375D03*
D11*
X038019Y009273D03*
X037763Y009273D03*
X037507Y009273D03*
X037252Y009273D03*
X036996Y009273D03*
X036740Y009273D03*
X036484Y009273D03*
X038275Y009273D03*
X038531Y009273D03*
X038787Y009273D03*
X039043Y009273D03*
X039299Y009273D03*
X039555Y009273D03*
X039811Y009273D03*
X039811Y011477D03*
X039555Y011477D03*
X039299Y011477D03*
X039043Y011477D03*
X038787Y011477D03*
X038531Y011477D03*
X038275Y011477D03*
X038019Y011477D03*
X037763Y011477D03*
X037507Y011477D03*
X037252Y011477D03*
X036996Y011477D03*
X036740Y011477D03*
X036484Y011477D03*
X031811Y011477D03*
X031555Y011477D03*
X031299Y011477D03*
X031043Y011477D03*
X030787Y011477D03*
X030531Y011477D03*
X030275Y011477D03*
X030019Y011477D03*
X029763Y011477D03*
X029507Y011477D03*
X029252Y011477D03*
X028996Y011477D03*
X028740Y011477D03*
X028484Y011477D03*
X028484Y009273D03*
X028740Y009273D03*
X028996Y009273D03*
X029252Y009273D03*
X029507Y009273D03*
X029763Y009273D03*
X030019Y009273D03*
X030275Y009273D03*
X030531Y009273D03*
X030787Y009273D03*
X031043Y009273D03*
X031299Y009273D03*
X031555Y009273D03*
X031811Y009273D03*
X023811Y009273D03*
X023555Y009273D03*
X023299Y009273D03*
X023043Y009273D03*
X022787Y009273D03*
X022531Y009273D03*
X022275Y009273D03*
X022019Y009273D03*
X021763Y009273D03*
X021507Y009273D03*
X021252Y009273D03*
X020996Y009273D03*
X020740Y009273D03*
X020484Y009273D03*
X020484Y011477D03*
X020740Y011477D03*
X020996Y011477D03*
X021252Y011477D03*
X021507Y011477D03*
X021763Y011477D03*
X022019Y011477D03*
X022275Y011477D03*
X022531Y011477D03*
X022787Y011477D03*
X023043Y011477D03*
X023299Y011477D03*
X023555Y011477D03*
X023811Y011477D03*
X015811Y011477D03*
X015555Y011477D03*
X015299Y011477D03*
X015043Y011477D03*
X014787Y011477D03*
X014531Y011477D03*
X014275Y011477D03*
X014019Y011477D03*
X013763Y011477D03*
X013507Y011477D03*
X013252Y011477D03*
X012996Y011477D03*
X012740Y011477D03*
X012484Y011477D03*
X012484Y009273D03*
X012740Y009273D03*
X012996Y009273D03*
X013252Y009273D03*
X013507Y009273D03*
X013763Y009273D03*
X014019Y009273D03*
X014275Y009273D03*
X014531Y009273D03*
X014787Y009273D03*
X015043Y009273D03*
X015299Y009273D03*
X015555Y009273D03*
X015811Y009273D03*
X007811Y009273D03*
X007555Y009273D03*
X007299Y009273D03*
X007043Y009273D03*
X006787Y009273D03*
X006531Y009273D03*
X006275Y009273D03*
X006019Y009273D03*
X005763Y009273D03*
X005507Y009273D03*
X005252Y009273D03*
X004996Y009273D03*
X004740Y009273D03*
X004484Y009273D03*
X004484Y011477D03*
X004740Y011477D03*
X004996Y011477D03*
X005252Y011477D03*
X005507Y011477D03*
X005763Y011477D03*
X006019Y011477D03*
X006275Y011477D03*
X006531Y011477D03*
X006787Y011477D03*
X007043Y011477D03*
X007299Y011477D03*
X007555Y011477D03*
X007811Y011477D03*
D12*
X008397Y006525D03*
X008397Y007125D03*
X011847Y007750D03*
X012447Y007750D03*
X012447Y008375D03*
X011847Y008375D03*
X016397Y007125D03*
X016397Y006525D03*
X019847Y007750D03*
X020447Y007750D03*
X020447Y008375D03*
X019847Y008375D03*
X016397Y010950D03*
X016397Y011550D03*
X015811Y012125D03*
X015811Y012725D03*
X015822Y013375D03*
X015222Y013375D03*
X015222Y014000D03*
X015822Y014000D03*
X014447Y014000D03*
X013847Y014000D03*
X013010Y015750D03*
X012410Y015750D03*
X011885Y015750D03*
X011285Y015750D03*
X009947Y015750D03*
X009947Y015188D03*
X009347Y015188D03*
X009347Y015750D03*
X006960Y013813D03*
X006960Y013213D03*
X006210Y015763D03*
X006210Y016363D03*
X004897Y015750D03*
X004297Y015750D03*
X003697Y015750D03*
X003097Y015750D03*
X003847Y008375D03*
X004447Y008375D03*
X004447Y007750D03*
X003847Y007750D03*
X018347Y017875D03*
X018947Y017875D03*
X018947Y018625D03*
X018347Y018625D03*
X024972Y015188D03*
X025572Y015188D03*
X026147Y015188D03*
X026747Y015188D03*
X027597Y015125D03*
X028197Y015125D03*
X026747Y015938D03*
X026147Y015938D03*
X027647Y016375D03*
X028247Y016375D03*
X029847Y015438D03*
X030447Y015438D03*
X031647Y015825D03*
X032297Y015825D03*
X032947Y015825D03*
X032947Y016425D03*
X032297Y016425D03*
X031647Y016425D03*
X034347Y016125D03*
X034947Y016125D03*
X038522Y016325D03*
X039147Y016325D03*
X039147Y016925D03*
X038522Y016925D03*
X039772Y016925D03*
X039772Y016325D03*
X042022Y015738D03*
X042637Y015738D03*
X042637Y015138D03*
X042022Y015138D03*
X039897Y014613D03*
X039897Y014013D03*
X039835Y013425D03*
X039835Y012825D03*
X039147Y012825D03*
X039147Y013425D03*
X038585Y013700D03*
X038585Y014300D03*
X042285Y018750D03*
X042127Y019325D03*
X041527Y019325D03*
X041527Y019925D03*
X042127Y019925D03*
X040897Y019925D03*
X040897Y019325D03*
X042885Y018750D03*
X038647Y020825D03*
X038647Y021425D03*
X023772Y013300D03*
X023147Y013300D03*
X022022Y013575D03*
X021397Y013575D03*
X021397Y014175D03*
X022022Y014175D03*
X023147Y012700D03*
X023772Y012700D03*
X027847Y008375D03*
X028447Y008375D03*
X028447Y007750D03*
X027847Y007750D03*
X024397Y007125D03*
X024397Y006525D03*
X032397Y006525D03*
X032397Y007125D03*
X035847Y007750D03*
X036447Y007750D03*
X036447Y008375D03*
X035847Y008375D03*
X040397Y007125D03*
X040397Y006525D03*
D13*
X041397Y009509D03*
X041397Y011241D03*
X034897Y011241D03*
X033397Y011241D03*
X033397Y009509D03*
X034897Y009509D03*
X026897Y009509D03*
X025397Y009509D03*
X025397Y011241D03*
X026897Y011241D03*
X018897Y011241D03*
X017397Y011241D03*
X017397Y009509D03*
X018897Y009509D03*
X010897Y009509D03*
X009397Y009509D03*
X009397Y011241D03*
X010897Y011241D03*
X002897Y011241D03*
X002897Y009509D03*
D14*
G36*
X007460Y014475D02*
X007248Y014263D01*
X007036Y014475D01*
X007248Y014687D01*
X007460Y014475D01*
G37*
G36*
X007884Y014900D02*
X007672Y014688D01*
X007460Y014900D01*
X007672Y015112D01*
X007884Y014900D01*
G37*
G36*
X030685Y014688D02*
X030473Y014900D01*
X030685Y015112D01*
X030897Y014900D01*
X030685Y014688D01*
G37*
G36*
X031109Y014263D02*
X030897Y014475D01*
X031109Y014687D01*
X031321Y014475D01*
X031109Y014263D01*
G37*
D15*
X028197Y014375D03*
X027597Y014375D03*
X027597Y013438D03*
X028197Y013438D03*
X028197Y012500D03*
X027597Y012500D03*
X024060Y015750D03*
X023460Y015750D03*
X022860Y015750D03*
X020135Y014363D03*
X019535Y014363D03*
X019535Y013463D03*
X020135Y013463D03*
X020135Y012563D03*
X019535Y012563D03*
X015497Y015125D03*
X014897Y015125D03*
X014297Y015125D03*
X012197Y014625D03*
X011597Y014625D03*
X011597Y013625D03*
X012197Y013625D03*
X012197Y012625D03*
X011597Y012625D03*
X008122Y015813D03*
X007522Y015813D03*
X006922Y015813D03*
X003697Y014625D03*
X003097Y014625D03*
X003097Y013625D03*
X003697Y013625D03*
X003697Y012625D03*
X003097Y012625D03*
X029672Y016313D03*
X030272Y016313D03*
X030872Y016313D03*
X035597Y014375D03*
X036197Y014375D03*
X036197Y013438D03*
X035597Y013438D03*
X035597Y012500D03*
X036197Y012500D03*
X038047Y015125D03*
X038647Y015125D03*
X039247Y015125D03*
D16*
X041397Y017750D03*
D17*
X041269Y016923D03*
X041013Y016923D03*
X041525Y016923D03*
X041781Y016923D03*
X041781Y018577D03*
X041525Y018577D03*
X041269Y018577D03*
X041013Y018577D03*
D18*
X040147Y017851D03*
X039647Y017851D03*
X039147Y017851D03*
X038647Y017851D03*
X038647Y019899D03*
X039147Y019899D03*
X039647Y019899D03*
X040147Y019899D03*
M02*
