G75*
G70*
%OFA0B0*%
%FSLAX24Y24*%
%IPPOS*%
%LPD*%
%AMOC8*
5,1,8,0,0,1.08239X$1,22.5*
%
%ADD10C,0.1241*%
%ADD11C,0.0454*%
%ADD12R,0.0173X0.0685*%
%ADD13R,0.2039X0.1220*%
%ADD14R,0.0360X0.0360*%
%ADD15R,0.1123X0.0769*%
%ADD16C,0.0660*%
%ADD17R,0.0360X0.0360*%
%ADD18R,0.0520X0.0690*%
%ADD19R,0.0060X0.0720*%
%ADD20C,0.1560*%
%ADD21OC8,0.0540*%
%ADD22C,0.0720*%
%ADD23C,0.1310*%
%ADD24R,0.0780X0.0740*%
%ADD25R,0.0213X0.0685*%
%ADD26C,0.1060*%
%ADD27OC8,0.1060*%
%ADD28R,0.0296X0.0926*%
%ADD29OC8,0.0600*%
D10*
X002147Y004625D03*
X002147Y024875D03*
X042397Y024875D03*
X042397Y004625D03*
D11*
X041147Y006375D03*
X039710Y021063D03*
X010147Y007875D03*
D12*
X007811Y009273D03*
X007555Y009273D03*
X007299Y009273D03*
X007043Y009273D03*
X006787Y009273D03*
X006531Y009273D03*
X006275Y009273D03*
X006019Y009273D03*
X005763Y009273D03*
X005507Y009273D03*
X005252Y009273D03*
X004996Y009273D03*
X004740Y009273D03*
X004484Y009273D03*
X004484Y011477D03*
X004740Y011477D03*
X004996Y011477D03*
X005252Y011477D03*
X005507Y011477D03*
X005763Y011477D03*
X006019Y011477D03*
X006275Y011477D03*
X006531Y011477D03*
X006787Y011477D03*
X007043Y011477D03*
X007299Y011477D03*
X007555Y011477D03*
X007811Y011477D03*
X012484Y011477D03*
X012740Y011477D03*
X012996Y011477D03*
X013252Y011477D03*
X013507Y011477D03*
X013763Y011477D03*
X014019Y011477D03*
X014275Y011477D03*
X014531Y011477D03*
X014787Y011477D03*
X015043Y011477D03*
X015299Y011477D03*
X015555Y011477D03*
X015811Y011477D03*
X015811Y009273D03*
X015555Y009273D03*
X015299Y009273D03*
X015043Y009273D03*
X014787Y009273D03*
X014531Y009273D03*
X014275Y009273D03*
X014019Y009273D03*
X013763Y009273D03*
X013507Y009273D03*
X013252Y009273D03*
X012996Y009273D03*
X012740Y009273D03*
X012484Y009273D03*
X020484Y009273D03*
X020740Y009273D03*
X020996Y009273D03*
X021252Y009273D03*
X021507Y009273D03*
X021763Y009273D03*
X022019Y009273D03*
X022275Y009273D03*
X022531Y009273D03*
X022787Y009273D03*
X023043Y009273D03*
X023299Y009273D03*
X023555Y009273D03*
X023811Y009273D03*
X023811Y011477D03*
X023555Y011477D03*
X023299Y011477D03*
X023043Y011477D03*
X022787Y011477D03*
X022531Y011477D03*
X022275Y011477D03*
X022019Y011477D03*
X021763Y011477D03*
X021507Y011477D03*
X021252Y011477D03*
X020996Y011477D03*
X020740Y011477D03*
X020484Y011477D03*
X028484Y011477D03*
X028740Y011477D03*
X028996Y011477D03*
X029252Y011477D03*
X029507Y011477D03*
X029763Y011477D03*
X030019Y011477D03*
X030275Y011477D03*
X030531Y011477D03*
X030787Y011477D03*
X031043Y011477D03*
X031299Y011477D03*
X031555Y011477D03*
X031811Y011477D03*
X031811Y009273D03*
X031555Y009273D03*
X031299Y009273D03*
X031043Y009273D03*
X030787Y009273D03*
X030531Y009273D03*
X030275Y009273D03*
X030019Y009273D03*
X029763Y009273D03*
X029507Y009273D03*
X029252Y009273D03*
X028996Y009273D03*
X028740Y009273D03*
X028484Y009273D03*
X036484Y009273D03*
X036740Y009273D03*
X036996Y009273D03*
X037252Y009273D03*
X037507Y009273D03*
X037763Y009273D03*
X038019Y009273D03*
X038275Y009273D03*
X038531Y009273D03*
X038787Y009273D03*
X039043Y009273D03*
X039299Y009273D03*
X039555Y009273D03*
X039811Y009273D03*
X039811Y011477D03*
X039555Y011477D03*
X039299Y011477D03*
X039043Y011477D03*
X038787Y011477D03*
X038531Y011477D03*
X038275Y011477D03*
X038019Y011477D03*
X037763Y011477D03*
X037507Y011477D03*
X037252Y011477D03*
X036996Y011477D03*
X036740Y011477D03*
X036484Y011477D03*
D13*
X038147Y010375D03*
X030147Y010375D03*
X022147Y010375D03*
X014147Y010375D03*
X006147Y010375D03*
D14*
X004447Y008375D03*
X003847Y008375D03*
X003847Y007750D03*
X004447Y007750D03*
X008397Y007125D03*
X008397Y006525D03*
X011847Y007750D03*
X012447Y007750D03*
X012447Y008375D03*
X011847Y008375D03*
X016397Y007125D03*
X016397Y006525D03*
X019847Y007750D03*
X020447Y007750D03*
X020447Y008375D03*
X019847Y008375D03*
X016397Y010950D03*
X016397Y011550D03*
X015811Y012125D03*
X015811Y012725D03*
X015822Y013375D03*
X015222Y013375D03*
X015222Y014000D03*
X015822Y014000D03*
X014447Y014000D03*
X013847Y014000D03*
X013010Y015750D03*
X012410Y015750D03*
X011885Y015750D03*
X011285Y015750D03*
X009947Y015750D03*
X009947Y015188D03*
X009347Y015188D03*
X009347Y015750D03*
X006960Y013813D03*
X006960Y013213D03*
X006210Y015763D03*
X006210Y016363D03*
X004897Y015750D03*
X004297Y015750D03*
X003697Y015750D03*
X003097Y015750D03*
X018347Y017875D03*
X018947Y017875D03*
X018947Y018625D03*
X018347Y018625D03*
X024972Y015188D03*
X025572Y015188D03*
X026147Y015188D03*
X026747Y015188D03*
X027597Y015125D03*
X028197Y015125D03*
X026747Y015938D03*
X026147Y015938D03*
X027647Y016375D03*
X028247Y016375D03*
X029847Y015438D03*
X030447Y015438D03*
X031647Y015825D03*
X032297Y015825D03*
X032947Y015825D03*
X032947Y016425D03*
X032297Y016425D03*
X031647Y016425D03*
X034347Y016125D03*
X034947Y016125D03*
X038522Y016325D03*
X039147Y016325D03*
X039147Y016925D03*
X038522Y016925D03*
X039772Y016925D03*
X039772Y016325D03*
X042022Y015738D03*
X042637Y015738D03*
X042637Y015138D03*
X042022Y015138D03*
X039897Y014613D03*
X039897Y014013D03*
X039835Y013425D03*
X039835Y012825D03*
X039147Y012825D03*
X039147Y013425D03*
X038585Y013700D03*
X038585Y014300D03*
X042285Y018750D03*
X042127Y019325D03*
X041527Y019325D03*
X041527Y019925D03*
X042127Y019925D03*
X040897Y019925D03*
X040897Y019325D03*
X042885Y018750D03*
X038647Y020825D03*
X038647Y021425D03*
X023772Y013300D03*
X023147Y013300D03*
X022022Y013575D03*
X021397Y013575D03*
X021397Y014175D03*
X022022Y014175D03*
X023147Y012700D03*
X023772Y012700D03*
X027847Y008375D03*
X028447Y008375D03*
X028447Y007750D03*
X027847Y007750D03*
X024397Y007125D03*
X024397Y006525D03*
X032397Y006525D03*
X032397Y007125D03*
X035847Y007750D03*
X036447Y007750D03*
X036447Y008375D03*
X035847Y008375D03*
X040397Y007125D03*
X040397Y006525D03*
D15*
X041397Y009509D03*
X041397Y011241D03*
X034897Y011241D03*
X033397Y011241D03*
X033397Y009509D03*
X034897Y009509D03*
X026897Y009509D03*
X025397Y009509D03*
X025397Y011241D03*
X026897Y011241D03*
X018897Y011241D03*
X017397Y011241D03*
X017397Y009509D03*
X018897Y009509D03*
X010897Y009509D03*
X009397Y009509D03*
X009397Y011241D03*
X010897Y011241D03*
X002897Y011241D03*
X002897Y009509D03*
D16*
X004647Y005800D02*
X004647Y005200D01*
X005647Y005200D02*
X005647Y005800D01*
X006647Y005800D02*
X006647Y005200D01*
X007647Y005200D02*
X007647Y005800D01*
X012647Y005800D02*
X012647Y005200D01*
X013647Y005200D02*
X013647Y005800D01*
X014647Y005800D02*
X014647Y005200D01*
X015647Y005200D02*
X015647Y005800D01*
X020647Y005800D02*
X020647Y005200D01*
X021647Y005200D02*
X021647Y005800D01*
X022647Y005800D02*
X022647Y005200D01*
X023647Y005200D02*
X023647Y005800D01*
X028647Y005800D02*
X028647Y005200D01*
X029647Y005200D02*
X029647Y005800D01*
X030647Y005800D02*
X030647Y005200D01*
X031647Y005200D02*
X031647Y005800D01*
X036647Y005800D02*
X036647Y005200D01*
X037647Y005200D02*
X037647Y005800D01*
X038647Y005800D02*
X038647Y005200D01*
X039647Y005200D02*
X039647Y005800D01*
D17*
G36*
X031109Y014221D02*
X030855Y014475D01*
X031109Y014729D01*
X031363Y014475D01*
X031109Y014221D01*
G37*
G36*
X030685Y014646D02*
X030431Y014900D01*
X030685Y015154D01*
X030939Y014900D01*
X030685Y014646D01*
G37*
G36*
X007926Y014900D02*
X007672Y014646D01*
X007418Y014900D01*
X007672Y015154D01*
X007926Y014900D01*
G37*
G36*
X007502Y014475D02*
X007248Y014221D01*
X006994Y014475D01*
X007248Y014729D01*
X007502Y014475D01*
G37*
D18*
X007522Y015813D03*
X006922Y015813D03*
X008122Y015813D03*
X011597Y014625D03*
X012197Y014625D03*
X012197Y013625D03*
X011597Y013625D03*
X011597Y012625D03*
X012197Y012625D03*
X014297Y015125D03*
X014897Y015125D03*
X015497Y015125D03*
X019535Y014363D03*
X020135Y014363D03*
X020135Y013463D03*
X019535Y013463D03*
X019535Y012563D03*
X020135Y012563D03*
X022860Y015750D03*
X023460Y015750D03*
X024060Y015750D03*
X027597Y014375D03*
X028197Y014375D03*
X028197Y013438D03*
X027597Y013438D03*
X027597Y012500D03*
X028197Y012500D03*
X029672Y016313D03*
X030272Y016313D03*
X030872Y016313D03*
X035597Y014375D03*
X036197Y014375D03*
X036197Y013438D03*
X035597Y013438D03*
X035597Y012500D03*
X036197Y012500D03*
X038047Y015125D03*
X038647Y015125D03*
X039247Y015125D03*
X003697Y014625D03*
X003097Y014625D03*
X003097Y013625D03*
X003697Y013625D03*
X003697Y012625D03*
X003097Y012625D03*
D19*
X003397Y012625D03*
X003397Y013625D03*
X003397Y014625D03*
X011897Y014625D03*
X011897Y013625D03*
X011897Y012625D03*
X019835Y012563D03*
X019835Y013463D03*
X019835Y014363D03*
X027897Y014375D03*
X027897Y013438D03*
X027897Y012500D03*
X035897Y012500D03*
X035897Y013438D03*
X035897Y014375D03*
D20*
X010012Y022625D03*
X008012Y022625D03*
D21*
X009647Y014375D03*
X008657Y013375D03*
X010637Y013375D03*
X016657Y013375D03*
X017647Y014375D03*
X018637Y013375D03*
X024657Y013375D03*
X025647Y014375D03*
X026637Y013375D03*
X032657Y013375D03*
X033647Y014375D03*
X034637Y013375D03*
X040657Y013375D03*
X041647Y014375D03*
X042637Y013375D03*
X042887Y021750D03*
X041897Y022750D03*
X040907Y021750D03*
D22*
X032647Y019125D03*
X031647Y019125D03*
X030647Y019125D03*
X029647Y019125D03*
X028647Y019125D03*
X027647Y019125D03*
X026647Y019125D03*
X025647Y019125D03*
X024647Y019125D03*
X023647Y019125D03*
X022647Y019125D03*
X021647Y019125D03*
X021647Y018125D03*
X022647Y018125D03*
X023647Y018125D03*
X024647Y018125D03*
X025647Y018125D03*
X026647Y018125D03*
X027647Y018125D03*
X028647Y018125D03*
X029647Y018125D03*
X030647Y018125D03*
X031647Y018125D03*
X032647Y018125D03*
D23*
X016784Y018625D03*
X014134Y018625D03*
X010660Y018625D03*
X008010Y018625D03*
D24*
X041397Y017750D03*
D25*
X041269Y016923D03*
X041013Y016923D03*
X041525Y016923D03*
X041781Y016923D03*
X041781Y018577D03*
X041525Y018577D03*
X041269Y018577D03*
X041013Y018577D03*
D26*
X002897Y019125D03*
D27*
X004897Y019125D03*
D28*
X038647Y019899D03*
X039147Y019899D03*
X039647Y019899D03*
X040147Y019899D03*
X040147Y017851D03*
X039647Y017851D03*
X039147Y017851D03*
X038647Y017851D03*
D29*
X037147Y017625D03*
X036147Y017625D03*
X036147Y018625D03*
X037147Y018625D03*
X037147Y019625D03*
X036147Y019625D03*
X036147Y020625D03*
X037147Y020625D03*
X037147Y021625D03*
X036147Y021625D03*
M02*
