%
M48
M72
T01C0.0157
T02C0.0320
T03C0.0360
T04C0.0394
T05C0.0400
T06C0.0470
T07C0.0700
T08C0.1181
%
T01
X4647Y6375
X4272Y6750
X4772Y7125
X5397Y6750
X5647Y6375
X6647Y6375
X6897Y6750
X7522Y7125
X7647Y6375
X7897Y7875
X7522Y8625
X8397Y9500
X8397Y9938
X7835Y9938
X7397Y9938
X7397Y10375
X7835Y10375
X8397Y10375
X8397Y10813
X8397Y11250
X7835Y10813
X7397Y10813
X8460Y12500
X7672Y14275
X6647Y15125
X6210Y15125
X4897Y15250
X3897Y11250
X3897Y10813
X3897Y10375
X3897Y9938
X3897Y9500
X4460Y9938
X4897Y9938
X4897Y10375
X4460Y10375
X4460Y10813
X4897Y10813
X10522Y7125
X12272Y6750
X12647Y6375
X13397Y6750
X13647Y6375
X14647Y6375
X14897Y6750
X15522Y7125
X15647Y6438
X15897Y7875
X15522Y8625
X16397Y9500
X16397Y9938
X15835Y9938
X15397Y9938
X15397Y10375
X15835Y10375
X16397Y10500
X15835Y10813
X15397Y10813
X16647Y12375
X15299Y12527
X14085Y12875
X14147Y13375
X15222Y14450
X17147Y14875
X17147Y15813
X16585Y16438
X16147Y17125
X18397Y17125
X22022Y14750
X22397Y15125
X23897Y14313
X24222Y12700
X25647Y12500
X26647Y12125
X28085Y11813
X27897Y10813
X28447Y10813
X28897Y10813
X28897Y10375
X28447Y10375
X27897Y10375
X27897Y9938
X27897Y9500
X28447Y9938
X28897Y9938
X31397Y9938
X31847Y9938
X32397Y9938
X32397Y9500
X32397Y10375
X31847Y10375
X31397Y10375
X31397Y10813
X31847Y10813
X32397Y10813
X32397Y11250
X33147Y12125
X30647Y12500
X29897Y12250
X29960Y13188
X31147Y15288
X30147Y17000
X27597Y15575
X26897Y16500
X24147Y16750
X20897Y14375
X21241Y13094
X22787Y12265
X24397Y11250
X24397Y10813
X23835Y10813
X23397Y10813
X23397Y10375
X23835Y10375
X24397Y10375
X24397Y9938
X24397Y9500
X23835Y9938
X23397Y9938
X23522Y8625
X23897Y7875
X23522Y7125
X22897Y6750
X22647Y6375
X21647Y6375
X21397Y6750
X20772Y7125
X20272Y6750
X20647Y6406
X18522Y7125
X19897Y9500
X19897Y9938
X20460Y9938
X20897Y9938
X20897Y10375
X20460Y10375
X19897Y10375
X19897Y10813
X20460Y10813
X20897Y10813
X20147Y11875
X19535Y11988
X13010Y15250
X13522Y16000
X11897Y11250
X11897Y10813
X12460Y10813
X12897Y10813
X12897Y10375
X12460Y10375
X11897Y10375
X11897Y9938
X11897Y9500
X12460Y9938
X12897Y9938
X12772Y7125
X23647Y6406
X26522Y7125
X28272Y6750
X28647Y6406
X29397Y6750
X29647Y6375
X30647Y6375
X30897Y6750
X31522Y7125
X31647Y6406
X31897Y7875
X31522Y8625
X28772Y7125
X34522Y7125
X36272Y6750
X36647Y6406
X37397Y6750
X37647Y6375
X38647Y6375
X38897Y6750
X39522Y7125
X39647Y6406
X39897Y7875
X39522Y8625
X40397Y9500
X40397Y9938
X39847Y9938
X39397Y9938
X39397Y10375
X39847Y10375
X40397Y10375
X40397Y10813
X40397Y11250
X39847Y10813
X39397Y10813
X40397Y12500
X40897Y12500
X42147Y12875
X39247Y14125
X40210Y15813
X40285Y16675
X40585Y17500
X40585Y18000
X40147Y18625
X40522Y18875
X39647Y18625
X38397Y19125
X37772Y18625
X35897Y16000
X34710Y15625
X35772Y11750
X35835Y11250
X36447Y10813
X36897Y10813
X36897Y10375
X36447Y10375
X35897Y10375
X35897Y9938
X35897Y9500
X36447Y9938
X36897Y9938
X36772Y7125
X41781Y16313
X42210Y17500
X42210Y18000
X30147Y19625
X25647Y19875
T02
X25647Y14375
X24657Y13375
X26637Y13375
X32657Y13375
X33647Y14375
X34637Y13375
X40657Y13375
X41647Y14375
X42637Y13375
X42887Y21750
X41897Y22750
X40907Y21750
X18637Y13375
X17647Y14375
X16657Y13375
X10637Y13375
X9647Y14375
X8657Y13375
T03
X36147Y17625
X37147Y17625
X37147Y18625
X36147Y18625
X36147Y19625
X37147Y19625
X37147Y20625
X36147Y20625
X36147Y21625
X37147Y21625
T04
X32647Y19125
X31647Y19125
X30647Y19125
X29647Y19125
X28647Y19125
X27647Y19125
X26647Y19125
X25647Y19125
X24647Y19125
X23647Y19125
X22647Y19125
X21647Y19125
X21647Y18125
X22647Y18125
X23647Y18125
X24647Y18125
X25647Y18125
X26647Y18125
X27647Y18125
X28647Y18125
X29647Y18125
X30647Y18125
X31647Y18125
X32647Y18125
T05
X31647Y5500
X30647Y5500
X29647Y5500
X28647Y5500
X23647Y5500
X22647Y5500
X21647Y5500
X20647Y5500
X15647Y5500
X14647Y5500
X13647Y5500
X12647Y5500
X7647Y5500
X6647Y5500
X5647Y5500
X4647Y5500
X4897Y19125
X2897Y19125
X36647Y5500
X37647Y5500
X38647Y5500
X39647Y5500
T06
X10012Y22625
X8012Y22625
T07
X8010Y18625
X10660Y18625
X14134Y18625
X16784Y18625
T08
X2147Y4625
X2147Y24875
X42397Y24875
X42397Y4625
M30
